REM DIRINDEX 1\2\6,1\2\7,1\2\8,1\3\9,1\3\10,1\3\11,1\4\12,1\4\13,1\4\14,1\5\15,1\5\16,1\5\17,1\5\18
REM DIRNAME cjc019,folder01,folder02,folder03,folder04,folder05,folder06,folder07,folder08,folder09,folder10,folder11,folder12,folder13,folder14,folder15,folder16,folder17
TITLE ""
FILE "2Q_j_1639-1652.mp3" MP3
  TRACK 01 AUDIO
    TITLE "6:cjc019_1380"
    INDEX 01 00:00:00
  TRACK 02 AUDIO
    TITLE "0:"
    INDEX 01 00:01:40
  TRACK 03 AUDIO
    TITLE "7:cjc019_1381"
    INDEX 01 00:02:24
  TRACK 04 AUDIO
    TITLE "0:"
    INDEX 01 00:04:15
  TRACK 05 AUDIO
    TITLE "8:cjc019_1382"
    INDEX 01 00:04:74
  TRACK 06 AUDIO
    TITLE "0:"
    INDEX 01 00:08:13
  TRACK 07 AUDIO
    TITLE "6:cjc019_1383"
    INDEX 01 00:08:70
  TRACK 08 AUDIO
    TITLE "0:"
    INDEX 01 00:10:72
  TRACK 09 AUDIO
    TITLE "7:cjc019_1384"
    INDEX 01 00:11:60
  TRACK 10 AUDIO
    TITLE "0:"
    INDEX 01 00:13:47
  TRACK 11 AUDIO
    TITLE "8:cjc019_1385"
    INDEX 01 00:14:25
  TRACK 12 AUDIO
    TITLE "0:"
    INDEX 01 00:17:00
  TRACK 13 AUDIO
    TITLE "6:cjc019_1386"
    INDEX 01 00:17:55
  TRACK 14 AUDIO
    TITLE "0:"
    INDEX 01 00:19:42
  TRACK 15 AUDIO
    TITLE "7:cjc019_1387"
    INDEX 01 00:20:30
  TRACK 16 AUDIO
    TITLE "0:"
    INDEX 01 00:22:21
  TRACK 17 AUDIO
    TITLE "8:cjc019_1388"
    INDEX 01 00:23:03
  TRACK 18 AUDIO
    TITLE "0:"
    INDEX 01 00:25:29
  TRACK 19 AUDIO
    TITLE "6:cjc019_1389"
    INDEX 01 00:26:09
  TRACK 20 AUDIO
    TITLE "0:"
    INDEX 01 00:27:69
  TRACK 21 AUDIO
    TITLE "7:cjc019_1390"
    INDEX 01 00:28:51
  TRACK 22 AUDIO
    TITLE "0:"
    INDEX 01 00:30:34
  TRACK 23 AUDIO
    TITLE "8:cjc019_1391"
    INDEX 01 00:31:08
  TRACK 24 AUDIO
    TITLE "0:"
    INDEX 01 00:34:02
  TRACK 25 AUDIO
    TITLE "6:cjc019_1392"
    INDEX 01 00:34:53
  TRACK 26 AUDIO
    TITLE "0:"
    INDEX 01 00:36:33
  TRACK 27 AUDIO
    TITLE "7:cjc019_1393"
    INDEX 01 00:37:12
  TRACK 28 AUDIO
    TITLE "0:"
    INDEX 01 00:41:40
  TRACK 29 AUDIO
    TITLE "8:cjc019_1394"
    INDEX 01 00:42:19
  TRACK 30 AUDIO
    TITLE "0:"
    INDEX 01 00:46:68
  TRACK 31 AUDIO
    TITLE "6:cjc019_1395"
    INDEX 01 00:47:48
  TRACK 32 AUDIO
    TITLE "0:"
    INDEX 01 00:49:35
  TRACK 33 AUDIO
    TITLE "7:cjc019_1396"
    INDEX 01 00:50:17
  TRACK 34 AUDIO
    TITLE "0:"
    INDEX 01 00:54:19
  TRACK 35 AUDIO
    TITLE "8:cjc019_1397"
    INDEX 01 00:54:74
  TRACK 36 AUDIO
    TITLE "0:"
    INDEX 01 00:57:60
  TRACK 37 AUDIO
    TITLE "6:cjc019_1398"
    INDEX 01 00:58:42
  TRACK 38 AUDIO
    TITLE "0:"
    INDEX 01 01:00:08
  TRACK 39 AUDIO
    TITLE "7:cjc019_1399"
    INDEX 01 01:00:62
  TRACK 40 AUDIO
    TITLE "0:"
    INDEX 01 01:02:63
  TRACK 41 AUDIO
    TITLE "8:cjc019_1400"
    INDEX 01 01:03:41
  TRACK 42 AUDIO
    TITLE "0:"
    INDEX 01 01:06:34
  TRACK 43 AUDIO
    TITLE "6:cjc019_1401"
    INDEX 01 01:07:19
  TRACK 44 AUDIO
    TITLE "0:"
    INDEX 01 01:09:09
  TRACK 45 AUDIO
    TITLE "7:cjc019_1402"
    INDEX 01 01:10:00
  TRACK 46 AUDIO
    TITLE "0:"
    INDEX 01 01:11:51
  TRACK 47 AUDIO
    TITLE "8:cjc019_1403"
    INDEX 01 01:12:28
  TRACK 48 AUDIO
    TITLE "0:"
    INDEX 01 01:15:74
  TRACK 49 AUDIO
    TITLE "6:cjc019_1404"
    INDEX 01 01:16:52
  TRACK 50 AUDIO
    TITLE "0:"
    INDEX 01 01:18:53
  TRACK 51 AUDIO
    TITLE "7:cjc019_1405"
    INDEX 01 01:19:34
  TRACK 52 AUDIO
    TITLE "0:"
    INDEX 01 01:21:53
  TRACK 53 AUDIO
    TITLE "8:cjc019_1406"
    INDEX 01 01:22:33
  TRACK 54 AUDIO
    TITLE "0:"
    INDEX 01 01:25:31
  TRACK 55 AUDIO
    TITLE "6:cjc019_1407"
    INDEX 01 01:26:01
  TRACK 56 AUDIO
    TITLE "0:"
    INDEX 01 01:28:14
  TRACK 57 AUDIO
    TITLE "7:cjc019_1408"
    INDEX 01 01:28:65
  TRACK 58 AUDIO
    TITLE "0:"
    INDEX 01 01:31:02
  TRACK 59 AUDIO
    TITLE "8:cjc019_1409"
    INDEX 01 01:31:59
  TRACK 60 AUDIO
    TITLE "0:"
    INDEX 01 01:35:27
  TRACK 61 AUDIO
    TITLE "6:cjc019_1410"
    INDEX 01 01:36:11
  TRACK 62 AUDIO
    TITLE "0:"
    INDEX 01 01:37:64
  TRACK 63 AUDIO
    TITLE "7:cjc019_1411"
    INDEX 01 01:38:51
  TRACK 64 AUDIO
    TITLE "0:"
    INDEX 01 01:40:31
  TRACK 65 AUDIO
    TITLE "8:cjc019_1412"
    INDEX 01 01:41:12
  TRACK 66 AUDIO
    TITLE "0:"
    INDEX 01 01:43:66
  TRACK 67 AUDIO
    TITLE "6:cjc019_1413"
    INDEX 01 01:44:46
  TRACK 68 AUDIO
    TITLE "0:"
    INDEX 01 01:46:45
  TRACK 69 AUDIO
    TITLE "7:cjc019_1414"
    INDEX 01 01:47:23
  TRACK 70 AUDIO
    TITLE "0:"
    INDEX 01 01:51:07
  TRACK 71 AUDIO
    TITLE "8:cjc019_1415"
    INDEX 01 01:51:64
  TRACK 72 AUDIO
    TITLE "0:"
    INDEX 01 01:55:24
  TRACK 73 AUDIO
    TITLE "6:cjc019_1416"
    INDEX 01 01:56:04
  TRACK 74 AUDIO
    TITLE "0:"
    INDEX 01 01:57:33
  TRACK 75 AUDIO
    TITLE "7:cjc019_1417"
    INDEX 01 01:58:11
  TRACK 76 AUDIO
    TITLE "0:"
    INDEX 01 02:01:72
  TRACK 77 AUDIO
    TITLE "8:cjc019_1418"
    INDEX 01 02:02:56
  TRACK 78 AUDIO
    TITLE "0:"
    INDEX 01 02:07:33
  TRACK 79 AUDIO
    TITLE "6:cjc019_1419"
    INDEX 01 02:08:07
  TRACK 80 AUDIO
    TITLE "0:"
    INDEX 01 02:09:54
  TRACK 81 AUDIO
    TITLE "7:cjc019_1420"
    INDEX 01 02:10:36
  TRACK 82 AUDIO
    TITLE "0:"
    INDEX 01 02:13:42
  TRACK 83 AUDIO
    TITLE "8:cjc019_1421"
    INDEX 01 02:14:22
  TRACK 84 AUDIO
    TITLE "0:"
    INDEX 01 02:17:14
